<?xml version="1.0" standalone="no"?>
<!DOCTYPE svg PUBLIC "-//W3C//DTD SVG 20010904//EN"
 "http://www.w3.org/TR/2001/REC-SVG-20010904/DTD/svg10.dtd">
<svg version="1.0" xmlns="http://www.w3.org/2000/svg"
 width="1080.000000pt" height="1080.000000pt" viewBox="0 0 1080.000000 1080.000000"
 preserveAspectRatio="xMidYMid meet">
<metadata>
Created by potrace 1.14, written by Peter Selinger 2001-2017
</metadata>
<g transform="translate(0.000000,1080.000000) scale(0.100000,-0.100000)"
fill="#000000" stroke="none">
<path d="M4659 8266 c-2 -2 -42 -6 -89 -10 -47 -3 -94 -8 -105 -10 -11 -2 -45
-7 -75 -11 -63 -8 -67 -9 -135 -25 -27 -6 -58 -13 -67 -15 -44 -9 -215 -56
-233 -64 -11 -5 -56 -21 -100 -36 -44 -16 -84 -31 -90 -35 -5 -4 -21 -11 -35
-15 -44 -12 -294 -141 -390 -200 -263 -163 -547 -411 -761 -665 -40 -48 -174
-223 -234 -307 -98 -136 -256 -411 -350 -607 -107 -224 -122 -258 -182 -411
-30 -77 -58 -149 -63 -160 -4 -11 -18 -48 -30 -83 -13 -35 -26 -60 -30 -55 -4
4 -32 55 -62 113 -31 58 -69 130 -85 160 -16 30 -52 96 -78 145 -27 50 -67
124 -90 165 -23 41 -61 110 -83 153 -72 133 -125 231 -142 262 l-17 30 -538
-3 c-296 -1 -540 -4 -542 -6 -3 -3 150 -291 287 -541 15 -27 46 -86 70 -130
50 -93 97 -181 132 -245 29 -53 84 -153 134 -247 20 -38 47 -86 59 -108 12
-22 48 -89 80 -150 32 -60 61 -114 65 -120 4 -5 29 -50 55 -100 104 -195 174
-324 265 -490 36 -66 102 -189 130 -242 11 -23 27 -43 33 -45 7 -2 161 -3 342
-2 182 2 422 3 535 3 l206 1 2 32 c3 43 39 266 57 353 8 38 17 85 20 102 6 37
23 114 66 291 236 987 645 1846 1144 2405 86 97 240 251 289 288 16 12 43 35
60 51 57 53 250 186 362 250 122 71 292 149 426 196 70 25 304 88 355 96 27 4
25 16 -3 17 -16 0 -38 2 -49 4 -11 2 -38 6 -60 10 -43 7 -449 17 -456 11z"/>
<path d="M6195 6295 c-220 -47 -365 -178 -420 -380 -14 -50 -17 -126 -20 -460
-2 -220 -4 -439 -5 -487 -1 -47 0 -90 3 -95 3 -5 62 -49 132 -99 69 -49 152
-107 183 -130 31 -22 70 -49 85 -59 l28 -18 -2 586 -2 586 24 48 c32 63 77 93
134 88 54 -4 78 -17 109 -58 48 -63 48 -56 47 -723 l-1 -632 203 -144 c111
-79 208 -148 215 -152 11 -7 13 139 9 831 -2 461 -7 854 -11 873 -42 196 -159
335 -337 399 -30 10 -72 22 -94 26 -70 13 -218 13 -280 0z"/>
<path d="M7236 5493 c1 -445 4 -828 8 -853 48 -313 260 -485 596 -482 272 3
487 165 544 409 10 47 15 145 16 385 1 178 3 395 4 483 l3 160 -205 145 c-113
80 -210 146 -216 148 -8 2 -11 -162 -11 -585 0 -557 -1 -590 -19 -626 -69
-139 -245 -107 -285 52 -5 20 -8 308 -7 650 1 407 -2 618 -9 626 -13 17 -403
295 -413 295 -4 0 -7 -363 -6 -807z"/>
<path d="M3528 6110 c-2 -85 -2 -171 0 -191 l3 -36 922 1 922 1 0 183 c0 101
-2 187 -5 191 -3 3 -418 7 -922 6 l-917 0 -3 -155z"/>
<path d="M9295 6098 c-350 -32 -563 -295 -512 -631 24 -156 141 -318 279 -385
115 -57 153 -61 550 -67 376 -5 394 -10 405 -109 5 -38 2 -48 -20 -69 -13 -14
-42 -30 -63 -36 -25 -7 -233 -11 -595 -11 l-557 -1 -32 -42 c-17 -23 -71 -98
-120 -167 -49 -69 -102 -143 -119 -166 -17 -23 -31 -44 -31 -48 0 -11 1423 -5
1504 6 173 23 334 135 410 285 115 229 47 519 -158 670 -129 95 -179 105 -566
109 -347 4 -369 6 -414 34 -53 32 -69 121 -29 162 43 43 78 45 663 44 l555 -1
139 195 c76 107 145 204 152 215 l13 20 -687 0 c-378 0 -723 -3 -767 -7z"/>
<path d="M3530 5216 l0 -191 920 0 920 0 1 25 c4 121 5 337 2 347 -3 8 -237
11 -924 11 l-919 0 0 -192z"/>
<path d="M3529 4567 c0 -12 -1 -98 -1 -192 l-1 -170 924 -3 924 -2 0 192 0
193 -923 2 -922 2 -1 -22z"/>
<path d="M4867 2825 c-92 -185 -167 -337 -167 -338 0 -1 31 -2 69 -2 l70 -1
63 135 c35 74 79 169 99 210 l36 76 48 -100 c26 -55 70 -147 97 -205 28 -58
52 -107 54 -109 6 -6 117 -9 132 -3 8 2 9 9 4 16 -8 9 -269 517 -322 624 l-16
33 -167 -336z"/>
<path d="M443 2821 c0 -369 -7 -337 77 -336 l45 0 0 198 c0 108 3 197 7 197 4
0 116 -92 250 -205 133 -113 245 -205 248 -205 3 0 5 149 5 330 l0 330 -62 0
-63 0 -2 -203 -3 -204 -215 184 c-118 102 -231 198 -251 214 l-36 29 0 -329z"/>
<path d="M3865 2819 c0 -181 2 -330 5 -330 3 -1 31 -2 63 -3 l57 -2 0 204 0
203 108 -92 c214 -182 390 -329 395 -329 2 0 4 149 4 330 l0 330 -64 0 -64 0
3 -200 c2 -110 0 -200 -4 -200 -6 0 -69 53 -353 295 -71 61 -134 114 -140 117
-7 4 -10 -106 -10 -323z"/>
<path d="M7685 2819 c0 -181 2 -330 5 -330 3 -1 31 -2 63 -3 l57 -2 0 204 0
204 57 -49 c51 -43 104 -88 137 -118 38 -34 305 -255 308 -255 3 0 5 149 5
330 l0 330 -63 0 -62 0 1 -200 c1 -110 -1 -200 -5 -200 -6 0 -55 38 -84 65 -6
5 -37 33 -69 60 -33 28 -75 64 -94 81 -44 37 -220 184 -241 201 -14 10 -15
-26 -15 -318z"/>
<path d="M8791 3037 c-30 -61 -103 -210 -162 -329 -60 -120 -105 -218 -101
-219 4 -1 35 -2 69 -3 l62 -2 28 56 29 55 141 3 141 3 30 -58 30 -58 66 0 c36
0 66 3 66 9 0 5 -62 129 -137 275 -75 146 -149 292 -165 324 -15 31 -31 57
-35 57 -5 0 -32 -51 -62 -113z m114 -235 c24 -51 41 -93 37 -93 -38 -7 -172
-2 -172 6 0 13 82 186 87 182 2 -2 23 -45 48 -95z"/>
<path d="M10330 3126 c-116 -32 -171 -91 -172 -187 0 -113 62 -158 257 -184
138 -19 177 -28 195 -47 10 -11 17 -27 15 -36 -2 -9 -4 -21 -4 -25 -1 -4 -21
-17 -47 -28 -94 -42 -271 -18 -323 44 -11 14 -19 12 -62 -15 -27 -17 -49 -34
-49 -39 0 -37 119 -110 206 -126 64 -12 189 -6 249 12 128 37 191 163 133 266
-34 60 -100 86 -268 104 -137 15 -180 34 -180 80 0 44 66 75 167 79 74 3 118
-11 154 -46 l28 -29 38 20 c66 35 67 36 52 62 -17 34 -47 58 -99 83 -54 25
-217 31 -290 12z"/>
<path d="M49 3088 c0 -52 0 -555 0 -583 1 -18 8 -20 61 -21 l60 0 1 85 c1 115
1 311 0 449 l-1 112 -60 0 -60 0 -1 -42z"/>
<path d="M1299 3113 c-5 -90 -3 -103 11 -104 8 -1 66 -1 128 0 l112 1 0 -263
0 -263 60 0 c33 1 61 3 61 6 1 3 3 118 4 255 1 138 3 253 4 256 0 4 52 6 114
6 62 0 118 3 124 6 7 4 12 32 12 62 l0 55 -315 0 c-292 0 -314 -1 -315 -17z"/>
<path d="M2150 3070 c0 -55 2 -60 23 -61 23 -1 490 0 542 0 29 1 30 2 28 51 0
28 -2 55 -2 60 -1 6 -107 10 -296 10 l-295 0 0 -60z"/>
<path d="M2999 3120 c-1 -5 -1 -21 -1 -35 0 -14 0 -36 1 -50 l1 -25 188 1
c103 0 200 0 215 0 41 -1 90 -52 84 -88 -14 -80 -36 -90 -194 -88 -77 0 -124
-3 -126 -10 -2 -5 -3 -32 -2 -60 l0 -50 50 -1 c28 -1 53 -2 56 -3 4 0 52 -52
107 -114 l101 -113 70 1 c39 1 72 3 75 6 3 2 -40 54 -94 116 l-99 111 45 12
c82 23 134 98 135 194 1 59 -16 100 -60 145 -55 56 -81 61 -327 61 -142 0
-224 -4 -225 -10z"/>
<path d="M5531 3070 l1 -60 62 -1 c33 -1 90 -2 126 -2 l65 -2 2 -240 c1 -132
2 -249 2 -260 1 -18 8 -20 61 -21 l60 0 1 30 c0 17 0 135 0 263 l0 232 112 0
c62 0 119 0 127 0 12 1 15 14 16 61 l0 60 -318 0 -318 0 1 -60z"/>
<path d="M6389 3103 c0 -32 0 -568 0 -598 1 -18 8 -20 61 -21 54 0 60 2 61 20
0 30 1 577 0 604 -1 20 -6 22 -61 22 -59 0 -60 -1 -61 -27z"/>
<path d="M6979 3115 c-86 -31 -173 -109 -205 -182 -25 -58 -29 -161 -10 -220
32 -95 120 -180 219 -213 133 -43 289 -1 381 101 102 112 109 282 18 397 -41
51 -124 106 -184 120 -62 16 -174 14 -219 -3z m181 -117 c91 -23 159 -105 160
-192 1 -131 -151 -226 -296 -186 -56 16 -124 80 -140 130 -24 77 7 164 73 210
68 47 126 58 203 38z"/>
<path d="M9400 2907 c0 -254 8 -303 62 -354 65 -61 86 -66 278 -68 96 -1 180
0 186 2 9 3 12 76 5 114 -1 4 -73 7 -161 7 -246 0 -246 -1 -245 306 l0 216
-62 0 -63 0 0 -223z"/>
<path d="M2150 2807 l0 -62 290 1 c160 1 293 4 296 7 5 5 8 41 5 89 l-1 27
-295 0 -295 0 0 -62z"/>
<path d="M2150 2546 l0 -61 288 0 c158 0 292 3 297 7 9 5 10 23 6 94 -1 22 -1
22 -296 22 l-295 -1 0 -61z"/>
</g>
</svg>
